<svg xmlns="http://www.w3.org/2000/svg" viewBox="0 0 419.1 403.6">
    <path fill="#f7dac0"
          d="m281.8 0-2.7.1c-35.8 6.2-55.5 44-58.4 77.5-4.2 30.3 9.2 69.3 42.5 76 4.8 1 9.8.6 14.5-.7 40.1-13.5 58-61 52.3-100.2C328.3 27.3 309-.3 281.8 0zM129.9 1.6c-22.3.6-39.6 23.2-43.2 44.4-7.4 42 11.7 94.3 55.6 107.7 4 .9 8.3 1 12.5.3 29.6-5 42.2-38.1 41-65-1-35.3-19.4-76.2-56-86.2-3.4-.9-6.7-1.3-9.9-1.2zm249 119.5c-38.6 2.3-65 40.8-68.8 76.7-5 25.9 8.7 60.5 38.3 62.6 41.2-.5 69.3-44.5 70.4-82.4 2.6-25-12.1-55.5-40-56.9zm-337.3 8.6a39 39 0 0 0-38 26.3c-14.2 44.6 14.5 101 61.7 110.4 19.7 3.4 37-11.7 42-30 10.3-39-11-84.1-47-101.8a38.9 38.9 0 0 0-18.7-5zm172.7 79.9a117 117 0 0 0-85.6 40.7c-22.5 28.3-40.9 61.2-48 96.9-8.8 25.7 11 55.3 38.5 55.5 33 .9 61.5-21.8 94.3-23.5 28-4.3 52.9 10.2 78 19.7 21.3 9.2 50.8 5.7 61.7-17.3 8.6-23.4-4-48.4-14.5-69.2-21.3-33.7-44.1-69.2-79.1-90.3a84.8 84.8 0 0 0-45.3-12.5z"/>
</svg>
